<svg id="algolia-1" xmlns="http://www.w3.org/2000/svg" xmlns:xlink="http://www.w3.org/1999/xlink" width="234.25" height="58" viewBox="0 0 234.25 58">
  <defs>
    <linearGradient id="linear-gradient" x1="2.215" y1="0.489" x2="2.225" y2="0.479" gradientUnits="objectBoundingBox">
      <stop offset="0" stop-color="#00aeff"/>
      <stop offset="1" stop-color="#3369e7"/>
    </linearGradient>
  </defs>
  <path id="Контур_309" data-name="Контур 309" d="M7.633,0H50.347a7.641,7.641,0,0,1,7.633,7.633V50.367A7.641,7.641,0,0,1,50.347,58H7.633A7.641,7.641,0,0,1,0,50.367V7.614A7.625,7.625,0,0,1,7.633,0Z" fill="url(#linear-gradient)"/>
  <path id="Контур_310" data-name="Контур 310" d="M145.832,93.307a16.386,16.386,0,1,0,16.382,16.382,16.388,16.388,0,0,0-16.382-16.382Zm0,27.933A11.542,11.542,0,1,1,157.374,109.7,11.545,11.545,0,0,1,145.832,121.24Zm0-20.717v8.6a.338.338,0,0,0,.495.3l7.633-3.957a.35.35,0,0,0,.145-.475,9.491,9.491,0,0,0-7.914-4.8.34.34,0,0,0-.359.33Zm-10.7-6.324-1-1a2.494,2.494,0,0,0-3.55,0l-1.193,1.193a2.494,2.494,0,0,0,0,3.55l.989.989a.347.347,0,0,0,.524-.039,18.391,18.391,0,0,1,1.92-2.25,18.608,18.608,0,0,1,2.27-1.94.329.329,0,0,0,.039-.5ZM151.2,91.6V89.612a2.513,2.513,0,0,0-2.512-2.512h-5.858a2.513,2.513,0,0,0-2.512,2.512v2.037a.341.341,0,0,0,.436.33,18.314,18.314,0,0,1,5.1-.718,18.744,18.744,0,0,1,4.927.669.332.332,0,0,0,.417-.33Z" transform="translate(-116.172 -78.652)" fill="#fff"/>
  <path id="Контур_311" data-name="Контур 311" d="M843.088,61.43c0,4.694-1.193,8.128-3.608,10.31s-6.091,3.269-11.047,3.269a47.057,47.057,0,0,1-8.584-1.018l1.106-5.451a42.346,42.346,0,0,0,7.585.669q4.146,0,5.907-1.688a6.591,6.591,0,0,0,1.755-5.014V61.382a20.67,20.67,0,0,1-2.7,1.018,13.465,13.465,0,0,1-3.831.514,14.319,14.319,0,0,1-5.189-.9,10.851,10.851,0,0,1-4.025-2.638,12.023,12.023,0,0,1-2.6-4.365,25.668,25.668,0,0,1-.931-7.138,21.423,21.423,0,0,1,.989-6.634,12.713,12.713,0,0,1,2.9-4.626,13.315,13.315,0,0,1,4.626-2.987,17.018,17.018,0,0,1,6.246-1.183,38.058,38.058,0,0,1,6.295.611,48.632,48.632,0,0,1,5.1,1.077ZM823.971,47.851c0,2.881.63,6.091,1.9,7.42a6.49,6.49,0,0,0,4.908,2.008,10.425,10.425,0,0,0,3.094-.456,8.481,8.481,0,0,0,2.357-1.077V38.667a27.662,27.662,0,0,0-4.539-.582,6.852,6.852,0,0,0-5.732,2.59c-1.319,1.639-1.988,4.5-1.988,7.177Zm51.773,0a16.611,16.611,0,0,1-1.018,5.994,14.284,14.284,0,0,1-2.9,4.908,12.888,12.888,0,0,1-4.5,3.152,18.3,18.3,0,0,1-5.819,1.164,18.035,18.035,0,0,1-5.79-1.164,13.07,13.07,0,0,1-4.491-3.152,14.384,14.384,0,0,1-2.919-4.908,16.24,16.24,0,0,1-1.057-5.994,19,19,0,0,1,1.018-6.46,14.227,14.227,0,0,1,2.958-4.869,13.256,13.256,0,0,1,4.5-3.133,14.581,14.581,0,0,1,5.732-1.086,15.07,15.07,0,0,1,5.751,1.086,12.544,12.544,0,0,1,4.5,3.133,14.485,14.485,0,0,1,2.919,4.869,17.884,17.884,0,0,1,1.115,6.46Zm-7.042.019a12.067,12.067,0,0,0-1.92-7.177,6.734,6.734,0,0,0-10.63,0,12.107,12.107,0,0,0-1.882,7.177,10.726,10.726,0,0,0,1.9,6.77,6.7,6.7,0,0,0,10.63,0,10.764,10.764,0,0,0,1.9-6.77Zm22.356,15.2c-11.28.048-11.28-9.117-11.28-10.572l-.019-32.511,6.877-1.086V51.2c0,.824,0,6.072,4.413,6.091v5.781Zm12.124,0h-6.915v-29.7l6.915-1.086ZM899.72,29.026a4.171,4.171,0,1,0-4.19-4.171,4.181,4.181,0,0,0,4.19,4.171ZM920.37,32.3a16.9,16.9,0,0,1,5.732.844,8.238,8.238,0,0,1,5.664,6.178,17.513,17.513,0,0,1,.6,4.772V61.8c-1.057.233-2.658.495-4.8.805a49.345,49.345,0,0,1-7.226.475,21.555,21.555,0,0,1-4.869-.514,10.252,10.252,0,0,1-3.783-1.639,7.973,7.973,0,0,1-2.444-2.919,11.058,11.058,0,0,1-.883-4.646,7.185,7.185,0,0,1,.989-3.918,8.249,8.249,0,0,1,2.7-2.852,11.5,11.5,0,0,1,3.938-1.581,22.348,22.348,0,0,1,4.675-.475,20.98,20.98,0,0,1,2.4.145,21.413,21.413,0,0,1,2.677.475V44.03a8.416,8.416,0,0,0-.281-2.25,4.744,4.744,0,0,0-.989-1.882,4.645,4.645,0,0,0-1.862-1.271,8.091,8.091,0,0,0-2.939-.524,24.706,24.706,0,0,0-4.345.427,20.246,20.246,0,0,0-3.239.8l-.824-5.645a27.146,27.146,0,0,1,3.8-.9,29.6,29.6,0,0,1,5.315-.475Zm.582,24.956a27.26,27.26,0,0,0,4.772-.33v-7a12.455,12.455,0,0,0-1.649-.33,16.228,16.228,0,0,0-2.4-.175,14.4,14.4,0,0,0-2.308.175,7.237,7.237,0,0,0-2.1.611,3.736,3.736,0,0,0-1.494,1.271,2.386,2.386,0,0,0-.562,1.688,3.291,3.291,0,0,0,1.581,3.162,7.815,7.815,0,0,0,4.151.931ZM785.107,32.479a16.9,16.9,0,0,1,5.732.844,9.244,9.244,0,0,1,3.715,2.357A9.174,9.174,0,0,1,796.5,39.5a17.513,17.513,0,0,1,.6,4.772v17.7c-1.057.233-2.658.495-4.8.805a49.344,49.344,0,0,1-7.226.475,21.555,21.555,0,0,1-4.869-.514,10.252,10.252,0,0,1-3.783-1.639,7.973,7.973,0,0,1-2.444-2.919,11.058,11.058,0,0,1-.883-4.646,7.185,7.185,0,0,1,.989-3.918,8.249,8.249,0,0,1,2.7-2.852,11.5,11.5,0,0,1,3.938-1.581,22.348,22.348,0,0,1,4.675-.475,20.98,20.98,0,0,1,2.4.145,20.317,20.317,0,0,1,2.677.475V44.2a8.416,8.416,0,0,0-.281-2.25,4.743,4.743,0,0,0-.989-1.882,4.644,4.644,0,0,0-1.862-1.271,8.091,8.091,0,0,0-2.939-.524,24.707,24.707,0,0,0-4.345.427,20.248,20.248,0,0,0-3.239.8l-.824-5.645a27.148,27.148,0,0,1,3.8-.9,26.3,26.3,0,0,1,5.315-.475Zm.6,24.975a27.259,27.259,0,0,0,4.772-.33v-7a12.455,12.455,0,0,0-1.649-.33,16.228,16.228,0,0,0-2.4-.175,14.4,14.4,0,0,0-2.308.175,7.236,7.236,0,0,0-2.095.611,3.736,3.736,0,0,0-1.494,1.271,2.386,2.386,0,0,0-.562,1.688,3.291,3.291,0,0,0,1.581,3.162,8.048,8.048,0,0,0,4.151.931Zm27.885,5.616c-11.28.048-11.28-9.117-11.28-10.572l-.019-32.511,6.877-1.086V51.2c0,.824,0,6.072,4.413,6.091Z" transform="translate(-698.117 -17.067)" fill="#182359"/>
</svg>
