<svg id="Icon_feather-shopping-cart" data-name="Icon feather-shopping-cart" xmlns="http://www.w3.org/2000/svg" width="27.095" height="26" viewBox="0 0 27.095 26">
  <path id="Контур_884" data-name="Контур 884" d="M14.19,31.1A1.1,1.1,0,1,1,13.1,30,1.1,1.1,0,0,1,14.19,31.1Z" transform="translate(-2.833 -7.69)" fill="none" stroke="#fff" stroke-linecap="round" stroke-linejoin="round" stroke-width="3"/>
  <path id="Контур_885" data-name="Контур 885" d="M30.69,31.1A1.1,1.1,0,1,1,29.6,30,1.1,1.1,0,0,1,30.69,31.1Z" transform="translate(-7.286 -7.69)" fill="none" stroke="#fff" stroke-linecap="round" stroke-linejoin="round" stroke-width="3"/>
  <path id="Контур_886" data-name="Контур 886" d="M1.5,1.5H5.881L8.816,16.165a2.19,2.19,0,0,0,2.19,1.763H21.652a2.19,2.19,0,0,0,2.19-1.763L25.6,6.976H6.976" fill="none" stroke="#fff" stroke-linecap="round" stroke-linejoin="round" stroke-width="3"/>
</svg>
