<svg id="cloudflare-1" xmlns="http://www.w3.org/2000/svg" width="174.777" height="58" viewBox="0 0 174.777 58">
  <path id="Контур_312" data-name="Контур 312" d="M173.3,476.6a1.48,1.48,0,1,1,1.48-1.48,1.5,1.5,0,0,1-1.48,1.48m0-2.673a1.193,1.193,0,1,0,1.193,1.193,1.2,1.2,0,0,0-1.193-1.193m.749,1.97H173.7l-.3-.555h-.389v.555H172.7v-1.628h.777a.531.531,0,0,1,.213,1.027Zm-.583-.851a.228.228,0,0,0,.241-.241c0-.194-.1-.241-.241-.241h-.49v.49h.49ZM18.751,473.5h3.793v10.333H29.13v3.312H18.751Zm14.3,6.855V480.3a7.163,7.163,0,0,1,7.373-7.1,7.07,7.07,0,0,1,7.317,7.049v.046a7.163,7.163,0,0,1-7.373,7.1,7.07,7.07,0,0,1-7.317-7.049m10.841,0V480.3a3.524,3.524,0,0,0-3.506-3.672,3.478,3.478,0,0,0-3.45,3.645v.046a3.483,3.483,0,1,0,6.956.028m8.492.8V473.5h3.839v7.585c0,1.97,1,2.9,2.507,2.9s2.507-.9,2.507-2.794V473.5h3.839v7.567c0,4.4-2.507,6.327-6.392,6.327-3.867-.009-6.3-1.961-6.3-6.235M70.867,473.5h5.254c4.866,0,7.706,2.794,7.706,6.734v.046c0,3.941-2.868,6.855-7.78,6.855h-5.18Zm5.319,10.286c2.257,0,3.765-1.24,3.765-3.45v-.046c0-2.192-1.508-3.45-3.765-3.45H74.651v6.929h1.536ZM89.322,473.5h10.915v3.312H93.087v2.331h6.466v3.136H93.087v4.866H89.322Zm16.17,0h3.765v10.333h6.614v3.312H105.482V473.5Zm20.258-.1h3.645l5.809,13.737h-4.061l-1-2.433H124.89l-.971,2.433H119.95Zm3.33,8.362-1.508-3.867-1.536,3.867Zm11-8.261h6.448a5.95,5.95,0,0,1,4.449,1.48,4.2,4.2,0,0,1,1.212,3.182v.046a4.3,4.3,0,0,1-2.794,4.181l3.256,4.764h-4.375l-2.747-4.135h-1.656v4.135h-3.793Zm6.272,6.54c1.286,0,2.017-.629,2.017-1.61v-.046c0-1.073-.777-1.61-2.044-1.61h-2.479v3.256Zm11.285-6.54h10.971v3.21h-7.225v2.063h6.54v2.988h-6.54v2.165H168.7v3.21H157.636ZM10.481,481.951A3.359,3.359,0,0,1,7.363,484a3.541,3.541,0,0,1-3.478-3.672v-.046a3.478,3.478,0,0,1,3.45-3.645,3.407,3.407,0,0,1,3.238,2.257H14.56a7.115,7.115,0,0,0-7.2-5.67A7.166,7.166,0,0,0,0,480.323v.046a7.078,7.078,0,0,0,7.317,7.058,7.173,7.173,0,0,0,7.151-5.448Z" transform="translate(0 -429.427)" fill="#404041"/>
  <path id="Контур_313" data-name="Контур 313" d="M1235.52,174.762l-10.434-5.985-1.8-.777-42.681.3V189.96h54.91Z" transform="translate(-1071.39 -152.459)" fill="#fff"/>
  <path id="Контур_314" data-name="Контур 314" d="M1009.066,35.5a5.193,5.193,0,0,0-.536-4.551,4.628,4.628,0,0,0-3.672-1.8l-29.934-.389a.577.577,0,0,1-.462-.241.667.667,0,0,1-.074-.537.826.826,0,0,1,.7-.537l30.2-.389a10.8,10.8,0,0,0,8.825-6.614l1.73-4.5a.907.907,0,0,0,.046-.583,19.661,19.661,0,0,0-37.806-2.017,8.949,8.949,0,0,0-6.2-1.73,8.846,8.846,0,0,0-7.9,7.9,9,9,0,0,0,.222,3.09A12.566,12.566,0,0,0,952,35.179,15.076,15.076,0,0,0,952.12,37a.6.6,0,0,0,.583.509h55.253a.75.75,0,0,0,.7-.537Z" transform="translate(-863.936)" fill="#f38020"/>
  <path id="Контур_315" data-name="Контур 315" d="M1593.578,175.9a8.164,8.164,0,0,0-.823.028.492.492,0,0,0-.435.342l-1.165,4.061a5.193,5.193,0,0,0,.536,4.551,4.628,4.628,0,0,0,3.672,1.8l6.374.389a.577.577,0,0,1,.463.241.678.678,0,0,1,.074.537.826.826,0,0,1-.7.537l-6.642.389a10.763,10.763,0,0,0-8.825,6.614l-.49,1.24a.353.353,0,0,0,.342.49h22.793a.594.594,0,0,0,.583-.435,16.621,16.621,0,0,0,.61-4.422,16.388,16.388,0,0,0-16.364-16.364" transform="translate(-1438.911 -159.629)" fill="#faae40"/>
</svg>
