<svg id="digitalocean-2" xmlns="http://www.w3.org/2000/svg" width="343.88" height="58" viewBox="0 0 343.88 58">
  <path id="Контур_316" data-name="Контур 316" d="M28.883,58V46.715a17.781,17.781,0,0,0,16.58-24.278A16.817,16.817,0,0,0,35.38,12.354a17.825,17.825,0,0,0-24.1,16.58H0A29.18,29.18,0,0,1,38.283,1.41,27.946,27.946,0,0,1,56.572,19.7,29.212,29.212,0,0,1,28.883,58Z" transform="translate(0 0.001)" fill="#0080ff"/>
  <path id="Контур_317" data-name="Контур 317" d="M33,71.337H21.715V60.224H33M21.715,80.057H13.169V71.337h8.546v8.721m-8.546-8.721H6v-7.18h7.169M107,41.417A21.712,21.712,0,0,0,94.7,37.985H84.272V71.323H94.7a20.912,20.912,0,0,0,12.307-3.59,13.079,13.079,0,0,0,4.273-5.3,18.937,18.937,0,0,0,1.538-7.866,17.642,17.642,0,0,0-1.538-7.694A10.9,10.9,0,0,0,107,41.417ZM90.426,43.641h3.247a16.568,16.568,0,0,1,9.057,2.224c2.564,1.538,3.775,4.462,3.775,8.721s-1.373,7.351-3.775,9.06A16.584,16.584,0,0,1,93.84,65.87H90.426V43.641m29.738-6.153a3.477,3.477,0,0,0-2.564,1.03,3.089,3.089,0,0,0-1.2,2.564,3.59,3.59,0,0,0,7.18,0,3.48,3.48,0,0,0-1.03-2.564,2.875,2.875,0,0,0-2.4-1.03m-3.089,10.258h5.982V71.169h-5.958V47.746M144.431,49.8a9.087,9.087,0,0,0-5.982-2.564,10.577,10.577,0,0,0-8.034,3.432,11.905,11.905,0,0,0-3.247,8.377,12.043,12.043,0,0,0,3.089,8.377,10.447,10.447,0,0,0,8.034,3.25A9.458,9.458,0,0,0,144.1,68.8v.511a6.154,6.154,0,0,1-1.538,4.462,5.687,5.687,0,0,1-4.273,1.538c-2.746,0-4.444-1.03-6.493-3.933l-4.118,3.933.172.172a16.156,16.156,0,0,0,3.93,3.59,11.224,11.224,0,0,0,6.493,1.716c3.59,0,6.325-1.03,8.374-3.25a12.035,12.035,0,0,0,3.247-8.549V47.746h-5.8V49.8h.343M142.9,63.653a5.8,5.8,0,0,1-8.237,0,7.639,7.639,0,0,1,.038-9.242,5.8,5.8,0,0,1,8.237,0,7.7,7.7,0,0,1,0,9.232m12.475-15.9h5.982V71.165h-6.02V47.746m2.907-10.258a3.5,3.5,0,0,0-3.59,3.59,3.59,3.59,0,1,0,7.18,0,3.5,3.5,0,0,0-3.593-3.59m15.89,3.93h-5.8v6.328H164.93v5.3h3.432v9.747c0,3.089.686,5.3,1.881,6.5s3.432,1.881,6.325,1.881A16.577,16.577,0,0,0,179.474,71h.343v-5.3l-2.059.172c-1.373,0-2.4-.172-2.746-.686-.511-.511-.686-1.538-.686-3.089V53.216H179.8v-5.3h-5.453l-.178-6.5m33.156-3.432H213.3V71.323h-5.975V38.006m65.632,24.96a19.823,19.823,0,0,1-2.907,2.746,5.9,5.9,0,0,1-3.089.855,5.834,5.834,0,0,1-4.256-1.9,7.025,7.025,0,0,1-1.716-4.959,6.988,6.988,0,0,1,1.716-4.959,5.254,5.254,0,0,1,4.273-1.881c1.881,0,3.93,1.2,5.639,3.25l3.93-3.775a11.816,11.816,0,0,0-9.743-4.788,11.388,11.388,0,0,0-8.374,3.59A12.424,12.424,0,0,0,255,59.867a12.077,12.077,0,0,0,3.432,8.721,11.116,11.116,0,0,0,8.374,3.59,11.818,11.818,0,0,0,10.083-5.3l-3.93-3.933m24.1-11.8a9,9,0,0,0-3.432-2.746,11.154,11.154,0,0,0-4.956-1.03,10.163,10.163,0,0,0-8.034,3.59,13.728,13.728,0,0,0-2.907,8.721,11.761,11.761,0,0,0,3.247,8.721,11.446,11.446,0,0,0,8.546,3.432,11.82,11.82,0,0,0,9.743-4.788l.172-.172-3.93-3.775a10.562,10.562,0,0,1-1.373,1.373,5.211,5.211,0,0,1-1.716,1.2,5.615,5.615,0,0,1-2.907.686,6.579,6.579,0,0,1-4.118-1.373,5.17,5.17,0,0,1-1.716-3.59H299.4V59.174a12.754,12.754,0,0,0-.686-4.462A7.753,7.753,0,0,0,297,51.123m-12.76,5.512a6.054,6.054,0,0,1,1.538-2.746,4.119,4.119,0,0,1,3.089-1.2,4.011,4.011,0,0,1,3.247,1.2,5,5,0,0,1,1.2,2.746h-9.071m35.551-7.011c-1.716-1.538-4.273-2.224-7.348-2.224a14.96,14.96,0,0,0-5.464,1.2,9.172,9.172,0,0,0-3.93,3.775l3.775,3.59c1.538-2.564,3.247-3.432,5.639-3.432a4.77,4.77,0,0,1,3.089,1.03,3.089,3.089,0,0,1,1.2,2.564v1.2a13.086,13.086,0,0,0-4.273-.686A11.866,11.866,0,0,0,305.3,58.7a6.863,6.863,0,0,0-2.746,5.814,6.624,6.624,0,0,0,2.22,5.3,8.085,8.085,0,0,0,5.639,1.881,10.423,10.423,0,0,0,6.325-2.4v1.881h5.81V56.123a7.9,7.9,0,0,0-2.746-6.5m-10.426,12.65a4.363,4.363,0,0,1,2.746-.686,14.541,14.541,0,0,1,4.444.855v2.224a7.55,7.55,0,0,1-5.127,1.881,3.365,3.365,0,0,1-2.4-.686,2.354,2.354,0,0,1-.855-1.716,2.8,2.8,0,0,1,1.2-1.881m35.878-12.3a8.662,8.662,0,0,0-6.836-2.746,7.6,7.6,0,0,0-5.639,2.059V47.907h-5.814V71.33h5.982V58.344a6.655,6.655,0,0,1,1.2-4.273,4.3,4.3,0,0,1,3.432-1.538,3.755,3.755,0,0,1,3.089,1.373,6.177,6.177,0,0,1,1.2,3.775V71.357h5.954v-13.7a12.932,12.932,0,0,0-2.564-7.694M199.98,49.623c-1.716-1.538-4.273-2.224-7.348-2.224a14.96,14.96,0,0,0-5.471,1.2,9.172,9.172,0,0,0-3.93,3.775l3.775,3.59c1.538-2.564,3.247-3.432,5.639-3.432a4.77,4.77,0,0,1,3.089,1.03,3.089,3.089,0,0,1,1.2,2.564v1.2a13.086,13.086,0,0,0-4.273-.686,11.866,11.866,0,0,0-7.18,2.059,6.863,6.863,0,0,0-2.746,5.814,6.624,6.624,0,0,0,2.22,5.3,8.085,8.085,0,0,0,5.639,1.881,10.423,10.423,0,0,0,6.325-2.4v1.881h5.81V56.123a8.453,8.453,0,0,0-2.746-6.5m-10.6,12.65a4.363,4.363,0,0,1,2.746-.686,14.541,14.541,0,0,1,4.444.855v2.224a7.55,7.55,0,0,1-5.127,1.881,3.365,3.365,0,0,1-2.4-.686,2.354,2.354,0,0,1-.855-1.716,5.093,5.093,0,0,1,1.2-1.881m45.3,9.575a17.1,17.1,0,1,1,17.091-17.1,17.1,17.1,0,0,1-17.091,17.1m0-28.379a5.626,5.626,0,1,1-.014.007" transform="translate(-3.941 -24.621)" fill="#0080ff"/>
</svg>
