<svg id="github-2" xmlns="http://www.w3.org/2000/svg" width="214.467" height="58" viewBox="0 0 214.467 58">
  <path id="Контур_318" data-name="Контур 318" d="M41.185,199.886H23.163a.843.843,0,0,0-.842.842v8.811a.844.844,0,0,0,.842.844h7.031v10.947a21.278,21.278,0,0,1-5.943.539c-5.149,0-12.342-1.882-12.342-17.7s7.49-17.9,14.522-17.9a28.52,28.52,0,0,1,10.378,1.588.848.848,0,0,0,1.009-.827l2.011-8.513a.786.786,0,0,0-.322-.658c-.677-.483-4.811-2.8-15.255-2.8-12.031,0-24.373,5.119-24.373,29.725s14.13,28.274,26.036,28.274c9.859,0,15.839-4.213,15.839-4.213a.725.725,0,0,0,.273-.639V200.728a.842.842,0,0,0-.842-.842m92.879-21.876a.84.84,0,0,0-.836-.847H123.08a.844.844,0,0,0-.84.847l0,19.611H106.425V178.01a.84.84,0,0,0-.837-.847H95.44a.843.843,0,0,0-.838.847v53.1a.845.845,0,0,0,.838.849h10.147a.843.843,0,0,0,.837-.849V208.4h15.817l-.028,22.713a.846.846,0,0,0,.841.849h10.172a.843.843,0,0,0,.837-.849v-53.1m-73.73,6.968a6.543,6.543,0,1,0-6.544,6.61,6.572,6.572,0,0,0,6.544-6.61m-.726,34.931V195.4a.844.844,0,0,0-.84-.846H48.653a.968.968,0,0,0-.879.945v35.116c0,1.033.643,1.339,1.475,1.339h9.114c1,0,1.245-.491,1.245-1.355V219.909m113.021-25.277h-10.07a.844.844,0,0,0-.838.849v26.036a11.376,11.376,0,0,1-6.189,1.872c-3.631,0-4.594-1.647-4.594-5.2V195.481a.844.844,0,0,0-.837-.849h-10.22a.846.846,0,0,0-.839.849v24.425c0,10.56,5.885,13.143,13.982,13.143a23.6,23.6,0,0,0,12-3.669,21.307,21.307,0,0,0,.37,2.163.887.887,0,0,0,.741.46l6.5-.029a.846.846,0,0,0,.839-.848l0-35.645a.845.845,0,0,0-.84-.849m23.55,28.725a12.071,12.071,0,0,1-5.862-1.692V204.851a13.42,13.42,0,0,1,5.2-1.689c3.626-.325,7.12.771,7.12,9.421C202.643,221.7,201.066,223.5,196.18,223.357Zm3.972-29.918a18.934,18.934,0,0,0-9.609,2.552V178.011a.841.841,0,0,0-.837-.847H179.529a.843.843,0,0,0-.839.847v53.1a.845.845,0,0,0,.84.849h7.061a.841.841,0,0,0,.736-.451,16.529,16.529,0,0,0,.429-2.448S191.917,233,199.794,233c9.248,0,14.551-4.691,14.551-21.058s-8.47-18.506-14.194-18.506M88.773,194.548H81.161l-.012-10.057c0-.38-.2-.571-.636-.571H70.141c-.4,0-.62.178-.62.565v10.392s-5.2,1.254-5.55,1.356a.842.842,0,0,0-.608.809v6.53a.842.842,0,0,0,.839.848h5.318v15.71c0,11.669,8.185,12.816,13.708,12.816a23.111,23.111,0,0,0,6.041-.995.785.785,0,0,0,.477-.761l.008-7.184a.856.856,0,0,0-.841-.847c-.443,0-1.578.18-2.746.18-3.739,0-5.006-1.739-5.006-3.989v-14.93h7.612a.843.843,0,0,0,.84-.848v-8.18a.841.841,0,0,0-.84-.845" transform="translate(0.122 -175.062)" fill="#121110"/>
</svg>
