<svg xmlns="http://www.w3.org/2000/svg" width="62.379" height="54.019" viewBox="0 0 62.379 54.019">
  <g id="Сгруппировать_1948" data-name="Сгруппировать 1948" transform="translate(-190.514 -9508.434)">
    <path id="Контур_967" data-name="Контур 967" d="M244.289,9556.479l-6.949,0-6.907,0-.014.025-.014-.025-3.455-5.989h-.015l.007-.013-.034-.059.209-.362,3.255-5.648.036.061h.006l0,0,3.472,6.019h.011l6.937,0-3.465-6-.011-.021-3.457-5.992h-.024l.012-.019-.043-.075-.206-.356-3.2-5.539h-.075l.038-.064-3.439-5.958h0l-3.467-6.007h-.034l.017-.029-3.433-5.949-.017-.027-3.47-6.015-3.471,6.007,0,0h0l-3.467,6,0,0h0l-3.457,5.985.01.019h-.022l-3.457,5.984.02.037-.042,0-3.448,5.967.011.02,6.935,0h0l3.463-5.988.007-.011,3.461-5.986-.015-.024h.03l3.456-5.976-.017-.029.034,0-.017.027,3.436,5.957.013.021,3.468,6.013.006.01,3.433,5.95-3.239,5.614-3.451,5.981h0l-.014.023-.22.382.028.048,3.207,5.559.242.42.006.011v0l3.447,5.972h6.913l6.933,0h6.948Z" transform="translate(5.164)" fill="#fff"/>
    <path id="Контур_968" data-name="Контур 968" d="M221.726,9523.528l3.455,5.989,0,.006-3.46,5.983h0v0l-3.471,6-.009.017-6.915,0h0l-.019-.032-.019.032-6.9,0h0l0,0,0,0-3.463,5.985h-.012l.006.01.005-.01,6.907,0h6.95l0,0h6.934l3.448,5.978h-6.931v0l-6.91,0H197.46v0h-6.945l3.462-5.992h0l0,0,3.458-5.985h.023l-.012-.02,3.468-6h0l6.934,0,.009.016.009-.016,6.9,0h.02l-.009-.019,3.448-5.971h.04l-.02-.035,3.437-5.952Z" transform="translate(0 8.951)" fill="#fff"/>
  </g>
</svg>
