<svg id="g1038" xmlns="http://www.w3.org/2000/svg" width="206.818" height="58" viewBox="0 0 206.818 58">
  <g id="g997" transform="translate(0 0)">
    <path id="path18" d="M78.807,35.813a29,29,0,1,0-5.22,40.67,29,29,0,0,0,5.22-40.67Z" transform="translate(-26.856 -24.538)" fill="#ff6c37"/>
    <path id="path20" d="M54.918,35.075,42.691,47.4l-3.456-3.552C51.269,31.813,52.477,32.9,54.918,35.075Z" transform="translate(-16.137 -16.599)" fill="#fff"/>
    <path id="path22" d="M42.893,47.94h0a.435.435,0,0,1-.29-.121l-3.48-3.48a.435.435,0,0,1,0-.6C50.988,31.87,52.607,32.426,55.411,34.964a.387.387,0,0,1,.145.314.338.338,0,0,1-.121.314L43.207,47.82a.459.459,0,0,1-.314.121ZM40.041,44.05,42.893,46.9l11.6-11.6a2.61,2.61,0,0,0-3.431-.58c-2.1.942-5.486,3.818-11.019,9.328Z" transform="translate(-16.34 -16.801)" fill="#ff6c37"/>
    <path id="path24" d="M44.512,50.06l-3.335-3.407L53.405,34.57C56.692,37.784,51.81,43.148,44.512,50.06Z" transform="translate(-14.455 -15.852)" fill="#fff"/>
    <path id="path26" d="M44.7,50.765h0a.507.507,0,0,1-.29-.121L41,47.31a.507.507,0,0,1,0-.387.459.459,0,0,1,0-.314L53.229,34.381a.459.459,0,0,1,.628,0,3.746,3.746,0,0,1,1.208,2.876c0,3.262-3.721,7.37-10.053,13.363A.508.508,0,0,1,44.7,50.765Zm-2.707-3.842,2.731,2.731c4.833-4.567,9.449-9.279,9.473-12.469a2.755,2.755,0,0,0-.628-1.861Z" transform="translate(-14.641 -16.122)" fill="#ff6c37"/>
    <path id="path28" d="M40.8,39.2l2.417,2.417a.145.145,0,0,1,0,.217l-5.1,1.087a.483.483,0,0,1-.435-.822l2.972-2.948a.239.239,0,0,1,.145.048Z" transform="translate(-17.608 -11.882)" fill="#fff"/>
    <path id="path30" d="M38.2,43.6a.942.942,0,0,1-.8-.459.918.918,0,0,1,.169-1.087l2.948-2.972a.58.58,0,0,1,.773,0L43.714,41.5a.532.532,0,0,1,.145.532.556.556,0,0,1-.411.387l-5.1,1.087Zm2.707-3.673L38.18,42.657h0l4.519-.967ZM41.128,39.709Z" transform="translate(-17.813 -12.074)" fill="#ff6c37"/>
    <path id="path32" d="M54.811,31.411a4.688,4.688,0,1,0-.846,7.395l-3.286-3.286Z" transform="translate(-9.529 -19.725)" fill="#fff"/>
    <path id="path34" d="M51.722,40.1A5.115,5.115,0,1,1,55.4,31.372a.411.411,0,0,1,0,.628L51.48,35.7l2.972,2.924a.411.411,0,0,1,.121.362.435.435,0,0,1-.193.314,5.244,5.244,0,0,1-2.658.8Zm0-9.376a4.246,4.246,0,1,0,1.692,8.144l-2.852-2.852a.387.387,0,0,1,0-.6l3.77-3.794a4.326,4.326,0,0,0-2.61-.894Z" transform="translate(-9.703 -19.904)" fill="#ff6c37"/>
    <path id="path36" d="M53.081,30.84h0l-4.132,4.108,3.286,3.286a5,5,0,0,0,.918-.677,4.833,4.833,0,0,0-.072-6.718Z" transform="translate(-7.727 -19.081)" fill="#fff"/>
    <path id="path38" d="M52.4,38.822a.362.362,0,0,1-.29-.121l-3.286-3.286a.387.387,0,0,1,0-.6l4.108-4.036a.435.435,0,0,1,.725,0h0a5.075,5.075,0,0,1,0,7.25,4.4,4.4,0,0,1-.967.773.387.387,0,0,1-.29.024ZM49.74,35.1l2.731,2.731A4.639,4.639,0,0,0,53,37.4a4.277,4.277,0,0,0,1.257-3.021A4.156,4.156,0,0,0,53.22,31.62Z" transform="translate(-7.963 -19.306)" fill="#ff6c37"/>
    <path id="path40" d="M54.114,34.934h0a1.764,1.764,0,0,0-2.417,0L40.75,45.857l1.812,1.837L54.138,37.544a1.788,1.788,0,0,0-.024-2.61Z" transform="translate(-14.825 -15.95)" fill="#fff"/>
    <path id="path42" d="M42.713,48.331a.435.435,0,0,1-.29-.121l-1.837-1.837a.435.435,0,0,1,0-.6l10.947-10.9a2.223,2.223,0,0,1,3.141,0h0a2.223,2.223,0,0,1,.652,1.643,2.271,2.271,0,0,1-.749,1.595L43,48.259A.411.411,0,0,1,42.713,48.331ZM41.432,46.06l1.208,1.232L54,37.409a1.329,1.329,0,0,0,.459-.967,1.281,1.281,0,0,0-.411-.991,1.353,1.353,0,0,0-1.909,0Z" transform="translate(-15.073 -16.153)" fill="#ff6c37"/>
    <path id="path44" d="M37.976,52.17a.242.242,0,0,0,0,.29l.483,2.1a.6.6,0,0,1-.991.556l-3.311-3.19L44.477,41.538h3.576l2.417,2.417A54.831,54.831,0,0,1,37.976,52.17Z" transform="translate(-20.533 -9.818)" fill="#fff"/>
    <path id="path46" d="M37.96,55.936a1.039,1.039,0,0,1-.725-.314L34.07,52.456a.387.387,0,0,1,0-.6L44.461,41.437a.411.411,0,0,1,.217-.121h3.6a.435.435,0,0,1,.29,0l2.417,2.417a.466.466,0,0,1-.024.652l-.193.169a59.205,59.205,0,0,1-12.4,7.95l.459,1.957a1.039,1.039,0,0,1-.991,1.281Zm-2.948-3.794,2.852,2.876a.128.128,0,1,0,.193-.169l-.483-2.1a.677.677,0,0,1,.362-.773h0a59.422,59.422,0,0,0,12.083-7.781L48.037,42.21H44.8ZM38.492,52.577Z" transform="translate(-20.735 -10.032)" fill="#ff6c37"/>
    <path id="path48" d="M32.931,49.562l2.417-2.417,3.721,3.721-5.921-.411a.483.483,0,0,1-.217-.894Z" transform="translate(-21.795 -4.963)" fill="#fff"/>
    <path id="path50" d="M39.275,51.421h0l-5.9-.411a.918.918,0,0,1-.58-1.547h0l2.417-2.417a.435.435,0,0,1,.6,0l3.7,3.7a.411.411,0,0,1,0,.483A.459.459,0,0,1,39.275,51.421Zm-5.9-1.353,4.833.314-2.658-2.489Z" transform="translate(-21.929 -5.154)" fill="#ff6c37"/>
    <path id="polygon52" d="M17.315,18.438l-4.881.749,2.827-2.8Z" transform="translate(10.543 13.571)" fill="#fff"/>
    <path id="path54" d="M39.386,44.047A.484.484,0,0,1,39,43.322l2.8-2.827a.459.459,0,0,1,.628,0l2.054,2.054a.561.561,0,0,1-.338.749l-4.833.749Zm2.827-2.634-1.571,1.571,2.707-.411Z" transform="translate(-16.409 -10.829)" fill="#ff6c37"/>
    <path id="path56" d="M43.614,42.646l-3.407.435a.435.435,0,0,1-.411-.725l1.764-1.764Z" transform="translate(-15.756 -10.637)" fill="#fff"/>
    <path id="path58" d="M40.318,43.744a.894.894,0,0,1-.773-.459.87.87,0,0,1,.145-1.039l1.764-1.764a.459.459,0,0,1,.628,0l2.054,2.054a.435.435,0,0,1-.266.749l-3.383.435Zm0-.894h0l2.562-.314L41.744,41.4l-1.45,1.45Z" transform="translate(-15.964 -10.841)" fill="#ff6c37"/>
    <path id="path60" d="M51.559,32.411a.362.362,0,0,0-.459-.145.338.338,0,0,0-.145.459,1.039,1.039,0,0,1-.121,1.087.314.314,0,0,0,0,.459.266.266,0,0,0,.193,0,.314.314,0,0,0,.314-.1,1.667,1.667,0,0,0,.217-1.764Z" transform="translate(-6.181 -17.873)" fill="#ff6c37"/>
  </g>
  <g id="g46" transform="translate(70.012 19.171)">
    <g id="g44" transform="translate(0)">
      <path id="path30-9" d="M75.012,60.632c-1.039,2.164-1.9,4.155-2.857,6.146-.26.519-.433,1.212-.952,1.212-.692,0-.779-.693-1.039-1.3-.779-1.731-1.558-3.463-2.337-5.107-.173-.26-.173-.779-.519-.692-.433.087-.346.606-.346.952V72.318a9.407,9.407,0,0,1-.087,1.558.944.944,0,0,1-.952.866.92.92,0,0,1-.779-.866V57.6c0-.693-.173-1.645.606-1.9.866-.26,1.385.433,1.731,1.212.952,1.991,1.731,3.982,2.683,5.886.26.519.346,1.472,1.039,1.558.779,0,.866-1.039,1.125-1.558.952-1.9,1.731-3.809,2.683-5.713.346-.779.779-1.558,1.731-1.385.952.26.693,1.212.693,1.991V72.751c0,.779.26,1.991-.866,1.991-1.212,0-.952-1.212-.952-2.077V62.71c-.087-.693.087-1.385-.606-2.078Z" transform="translate(16.571 -55.261)" fill="#ff6c37"/>
      <path id="path32-1" d="M91.254,61.079c-.519.519-.346,1.212-.346,1.818V73.2c0,.606.173,1.558-.693,1.558-.952.087-.952-.866-.952-1.558V57.271c0-.606-.087-1.385.606-1.558.779-.26,1.212.346,1.558,1.039,1.385,3.116,2.857,6.233,4.242,9.435.26.693.606,1.3.866,1.991.173.346.173.866.693.692.433-.173.346-.692.346-1.039V57.7a5.715,5.715,0,0,1,.087-1.212.884.884,0,0,1,.952-.866c.519.087.693.519.693,1.039V72.679c0,.693.26,1.645-.606,1.9-.952.346-1.3-.606-1.645-1.385-1.645-3.549-3.2-7.185-4.847-10.734C91.946,61.945,91.86,61.339,91.254,61.079Z" transform="translate(37.465 -55.275)" fill="#ff6c37"/>
      <path id="path34-7" d="M42.3,65.268c-.087,1.9.087,3.722-.173,5.627-.433,2.683-1.9,3.982-4.588,3.982-2.857,0-4.5-1.212-4.848-3.9a48.7,48.7,0,0,1,0-11.773c.346-2.51,2.078-3.722,4.674-3.722s4.242,1.3,4.674,3.722a35.887,35.887,0,0,1,.26,6.059Zm-1.731,0c0-1.472.087-2.943,0-4.415-.087-2.251-1.3-3.549-3.289-3.463-1.9,0-3.03,1.212-3.116,3.463-.087,2.943-.087,5.973,0,8.916.087,2.251,1.212,3.463,3.116,3.549,1.991,0,3.2-1.212,3.289-3.549C40.652,68.3,40.565,66.826,40.565,65.268Z" transform="translate(-11.826 -55.395)" fill="#ff6c37"/>
      <path id="path36-4" d="M88.852,73.707c0,.606-.087,1.039-.606,1.125a.72.72,0,0,1-.952-.519c-.087-.346-.26-.779-.346-1.125-.779-2.683-.779-2.683-3.116-2.683h-.779c-2.943,0-2.943,0-3.982,3.116-.173.606-.26,1.472-1.125,1.212-.866-.346-.606-1.212-.433-1.9,1.385-5.194,2.77-10.474,4.242-15.668.26-.779.346-1.9,1.472-1.818.952.087,1.125,1.039,1.3,1.818,1.3,4.934,2.683,9.868,3.982,14.889a10.065,10.065,0,0,1,.346,1.558Zm-5.8-4.848h.866c1.9,0,1.991-.087,1.385-2.251-.519-2.077-1.039-4.155-1.645-6.146-.087-.433,0-1.039-.519-1.039s-.606.606-.693,1.125c-.433,1.731-.866,3.463-1.385,5.194C80.2,68.86,80.283,68.86,83.053,68.86Z" transform="translate(27.142 -55.438)" fill="#ff6c37"/>
      <path id="path38-1" d="M21.341,65.268v-8.05c0-1.3.433-1.731,1.472-1.731h2.943c3.982.087,5.453,1.9,5.367,6.492-.087,3.116-1.645,4.934-4.328,5.107a19.522,19.522,0,0,1-2.251,0C23.332,67,22.9,67.605,22.986,68.9c.087,1.558,0,3.116,0,4.588,0,.606-.087,1.3-.866,1.3s-.779-.693-.779-1.385V65.268Zm4.068.26c2.51,0,3.463-.606,3.9-2.424s.433-3.549-.866-4.934c-1.385-1.385-3.2-.779-4.848-.692-.606,0-.606.779-.606,1.385v3.9C22.986,65.528,22.986,65.528,25.409,65.528Z" transform="translate(-21.341 -55.395)" fill="#ff6c37"/>
      <path id="path40-0" d="M48.21,75.091A5.147,5.147,0,0,1,43.8,73.36c-.346-.433-.779-1.039-.26-1.645.433-.519.952-.173,1.3.26a4.089,4.089,0,0,0,3.549,1.385,2.911,2.911,0,0,0,2.77-2.164,3.727,3.727,0,0,0-.779-3.9A10.472,10.472,0,0,0,47,65.223a4.717,4.717,0,0,1-3.2-4.242c-.26-3.116,1.125-4.848,4.155-5.453a6.464,6.464,0,0,1,3.636.519,1.119,1.119,0,0,1,.866,1.472c-.26.866-.866.519-1.385.26a5.393,5.393,0,0,0-3.463-.433,2.293,2.293,0,0,0-1.991,1.991,3.168,3.168,0,0,0,.866,3.03,16.247,16.247,0,0,0,3.636,1.9,5.171,5.171,0,0,1,2.943,5.021c0,2.251-.519,3.982-2.424,5.107a6.135,6.135,0,0,1-2.424.693Z" transform="translate(-2.332 -55.437)" fill="#ff6c37"/>
      <path id="path42-6" d="M58.1,65.961c0-2.251-.087-4.415,0-6.665.087-1.645-.519-2.164-1.818-1.991a10.433,10.433,0,0,1-1.645,0c-.519,0-.866-.26-.866-.952a.8.8,0,0,1,.779-.866h8.829a.727.727,0,0,1,.779.779.844.844,0,0,1-.866.952,13.98,13.98,0,0,1-1.9,0c-1.212-.087-1.558.519-1.558,1.818v14.2c0,.693-.087,1.472-.866,1.472-.866,0-.866-.779-.866-1.472V65.961Z" transform="translate(6.737 -55.395)" fill="#ff6c37"/>
    </g>
  </g>
</svg>
